<svg width="597" height="506" viewBox="0 0 597 506" fill="none" xmlns="http://www.w3.org/2000/svg">
<g clip-path="url(#clip0_209_23)">
<path d="M575.427 413.696H21.4851C9.63843 413.696 0 404.058 0 392.211V325.54H596.912V392.211C596.912 404.058 587.274 413.696 575.427 413.696Z" fill="#E6E6E6"/>
<path d="M370.149 402.544H228.887V503.445H370.149V402.544Z" fill="#E6E6E6"/>
<path d="M378.646 490.7H220.39V503.445H378.646V490.7Z" fill="#E6E6E6"/>
<path d="M596.381 353.686H0V14.7442C0 6.6144 6.6144 0 14.7442 0H581.637C589.767 0 596.381 6.6144 596.381 14.7442V353.686Z" fill="#616161"/>
<path d="M582.042 15.4007H13.8076V335.099H582.042V15.4007Z" fill="black"/>
<path d="M123.853 205.949C128.202 202.356 133.582 201.687 135.868 204.455C138.155 207.223 136.483 212.379 132.131 215.974C130.413 217.433 128.37 218.46 126.173 218.969L107.554 233.962L100.704 225.075L119.787 211.237C120.7 209.175 122.095 207.362 123.853 205.949H123.853Z" fill="#FFB6B6"/>
<path d="M16.2327 239.779C16.2233 239.116 16.2295 233.332 20.5116 229.676C25.4305 225.477 32.3714 227.177 34.8058 227.773C40.4294 229.15 40.8906 231.562 46.1718 234.041C56.0523 238.679 43.6724 236.305 49.5516 234.818C51.5867 234.303 80.8638 232.273 88.1514 227.787C102.325 219.064 111.982 213.774 111.982 213.774L118.295 226.4C118.295 226.4 109.167 239.094 96.3184 248.497C83.1391 258.143 76.5495 262.966 66.535 264.83C65.6726 264.99 44.4627 268.612 27.3799 255.849C23.4833 252.938 16.344 247.604 16.2327 239.779L16.2327 239.779Z" fill="#5FF3D1"/>
<path d="M35.8166 207.668C47.9628 207.668 57.8093 197.821 57.8093 185.675C57.8093 173.529 47.9628 163.682 35.8166 163.682C23.6704 163.682 13.824 173.529 13.824 185.675C13.824 197.821 23.6704 207.668 35.8166 207.668Z" fill="#FFB6B6"/>
<path d="M208.055 333.43L185.405 310.246L173.713 322.442L190.588 344.671L207.326 346.586L208.055 333.43Z" fill="#FFB6B6"/>
<path d="M78.7257 289.954C80.0504 290.064 84.2603 290.908 88.2841 288.694C91.0303 287.183 92.4387 284.936 92.9144 284.222C98.8158 275.359 121.467 261.538 141.795 260.687C146.399 260.494 149.429 261.028 152.183 262.464C156.089 264.499 157.648 267.415 162.603 274.246C165.314 277.983 168.314 281.503 171.057 285.216C187.119 306.952 193.208 308.659 192.586 315.627C191.896 323.359 183.557 330.694 178.015 329.847C175.745 329.501 174.866 327.922 171.834 324.727C162.943 315.36 159.264 317.09 152.934 309.915C145.544 301.538 146.511 294.592 142.655 294.324C139.08 294.075 137.56 300.001 129.926 307.872C126.433 311.474 123.946 313.126 116.368 318.384C86.857 338.857 86.3861 340.295 80.4305 341.928C77.8248 342.642 59.3309 347.713 52.7429 339.644C42.4334 327.017 66.7888 288.962 78.7257 289.954V289.954Z" fill="#302020"/>
<path d="M201.13 338.669C202.796 337.921 204.744 337.047 205.37 335.035C205.794 333.674 205.55 331.996 204.674 330.837C203.663 329.499 202.166 329.323 202.226 329.086C202.318 328.726 205.858 328.866 209.743 330.24C210.477 330.499 213.798 331.713 218.024 335.012C221.409 337.654 220.953 338.184 223.076 339.708C229.593 344.386 235.704 340.699 239.23 345.086C240.591 346.779 241.172 349.183 240.599 351.127C239.449 355.03 233.856 356.373 230.799 357.067C223.438 358.737 217.866 357.373 212.048 356.393C192.261 353.059 181.144 356.095 179.656 351.511C179.374 350.644 179.832 350.718 181.357 344.351C182.863 338.067 182.814 336.342 184.096 335.838C186.027 335.081 187.323 338.526 192.186 339.706C196.495 340.75 200.051 339.154 201.13 338.669H201.13Z" fill="#302020"/>
<path d="M167.788 409.275L162.066 377.372L145.543 380.899L147.023 408.768L159.798 419.751L167.788 409.275Z" fill="#FFB6B6"/>
<path d="M85.1877 300.678C86.2221 301.513 89.232 304.574 93.8047 305.002C96.9254 305.294 99.3523 304.226 100.147 303.902C110.007 299.882 136.511 301.165 153.809 311.876C157.727 314.302 159.935 316.445 161.407 319.18C163.496 323.057 163.148 326.345 163.413 334.781C163.558 339.395 164.063 343.992 164.248 348.605C165.333 375.61 169.413 380.441 164.985 385.858C160.072 391.867 149.054 393.255 144.943 389.442C143.26 387.88 143.419 386.081 142.704 381.735C140.607 368.991 136.592 368.357 135.383 358.865C133.972 347.784 138.672 342.579 135.633 340.192C132.814 337.978 128.229 342.028 117.492 344.255C112.579 345.274 109.593 345.244 100.37 345.339C64.4556 345.708 63.2579 346.634 57.4131 344.641C54.8559 343.769 36.706 337.579 35.7856 327.203C34.3453 310.966 75.8675 293.154 85.1877 300.678H85.1877Z" fill="#302020"/>
<path d="M159.116 409.722C160.915 410.038 163.018 410.408 164.665 409.096C165.781 408.208 166.521 406.682 166.447 405.231C166.361 403.556 165.222 402.569 165.405 402.407C165.683 402.161 168.533 404.265 170.977 407.583C171.438 408.21 173.505 411.079 175.149 416.181C176.466 420.269 175.791 420.452 176.692 422.905C179.457 430.435 186.585 430.816 187.039 436.426C187.214 438.591 186.345 440.906 184.78 442.193C181.636 444.777 176.254 442.748 173.335 441.605C166.306 438.853 162.461 434.596 158.198 430.518C143.697 416.648 132.793 412.918 134.136 408.289C134.39 407.413 134.727 407.731 139.565 403.32C144.339 398.966 145.268 397.51 146.611 397.814C148.634 398.271 147.772 401.85 151.133 405.557C154.112 408.841 157.951 409.517 159.116 409.722V409.722Z" fill="#302020"/>
<path d="M38.815 189.879C39.6712 186.817 38.5958 185.7 39.6919 184.326C39.6919 184.326 40.133 183.772 44.0763 182.28C42.9128 175.529 43.784 174.388 43.784 174.388C44.788 173.072 46.7992 172.754 48.1684 172.926C51.0642 173.29 51.5767 175.908 53.4296 175.849C55.9892 175.768 59.0592 170.644 58.1063 166.204C57.329 162.581 53.9775 159.891 53.1373 160.358C52.3043 160.821 49.3056 158.78 48.1684 159.189C47.3917 159.468 43.736 159.096 42.9071 159.481C42.0019 159.901 39.4095 162.516 39.1616 162.186C37.4393 159.897 37.4759 159.097 36.4767 158.604C34.706 157.73 32.781 159.346 29.4616 160.942C22.6321 164.227 20.6322 162.268 17.4776 165.034C15.8841 166.432 15.0296 169.103 13.3855 174.388C11.0864 181.779 9.93683 185.474 11.0472 189.002C12.1796 192.601 13.8472 191.818 16.3085 196.894C19.0483 202.546 18.104 205.83 20.6929 207.125C22.6937 208.125 25.9092 207.488 27.1233 205.663C29.2019 202.538 23.8294 198.311 25.6618 193.387C26.7867 190.364 30.2566 188.072 32.3846 188.71C34.7906 189.432 34.9678 193.746 36.4767 193.679C37.7687 193.622 38.6658 190.413 38.815 189.879H38.815Z" fill="#2E2E2E"/>
<path d="M22.1543 210.924C26.6548 205.878 44.9863 211.101 46.7069 219.108C47.4146 222.402 44.802 223.793 45.5378 227.585C46.6139 233.132 52.7068 232.754 57.2295 238.4C63.6502 246.416 57.0355 254.252 64.2445 267.629C65.7849 270.488 67.0833 272.897 69.798 275.229C76.0276 280.579 81.8252 278.744 84.9973 283.705C87.3693 287.415 86.3947 291.987 86.1664 293.059C85.2303 297.451 82.693 298.521 80.9052 302.12C77.9306 308.107 81.2985 312.503 81.4897 319.657C81.729 328.608 76.9724 341.016 67.4597 345.087C56.7726 349.66 43.8831 342.085 37.6458 334.564C33.924 330.076 32.8436 325.936 31.2154 320.826C23.9385 297.989 19.8273 300.054 14.2624 281.951C7.90073 261.256 6.6501 237.011 14.2624 229.339C15.2714 228.322 18.0481 225.971 19.816 221.739C22.1949 216.044 20.1397 213.183 22.1543 210.924L22.1543 210.924Z" fill="#5FF3D1"/>
<path d="M88.6533 328.391C92.1426 332.824 92.6834 338.218 89.8617 340.438C87.0399 342.659 81.9248 340.864 78.4349 336.429C77.0165 334.676 76.0385 332.609 75.5826 330.401L61.0356 311.43L68.5523 305.697L83.4638 324.2C85.5035 325.163 87.283 326.6 88.6533 328.391H88.6533Z" fill="#FFB6B6"/>
<path d="M35.3775 230.155C36.0247 230.011 41.6883 228.837 46.141 232.283C51.2558 236.241 51.008 243.383 50.9212 245.888C50.7204 251.674 48.4529 252.618 47.1039 258.294C44.5802 268.913 49.3865 278.781 52.0419 284.233C52.961 286.12 55.9139 291.895 61.792 298.114C73.224 310.209 83.4244 316.574 83.4244 316.574L72.4663 326.314C72.4663 326.314 55.0114 320.994 43.184 310.335C31.0519 299.401 12.3947 260.716 8.527 251.293C8.19392 250.481 12.912 263.675 21.9205 244.347C23.9753 239.938 27.7402 231.861 35.3775 230.155H35.3775Z" fill="#5FF3D1"/>
<path d="M315.838 221.081L302.754 214.884C308.12 222.373 312.744 234.069 315.22 243.376C319.411 234.706 326.168 224.098 332.856 217.762L319.028 221.319C327.549 179.559 359.598 149.58 396.298 149.58L396.818 148.072C358.483 148.072 324.538 177.635 315.838 221.081V221.081Z" fill="#3F3D56"/>
<path d="M376.057 284.71H293.389C289.883 284.71 287.03 281.857 287.03 278.351C287.03 274.845 289.883 271.992 293.389 271.992H376.057C379.563 271.992 382.416 274.845 382.416 278.351C382.416 281.857 379.563 284.71 376.057 284.71Z" fill="#5FF3D1"/>
<path d="M486.057 284.71H403.389C399.883 284.71 397.03 281.857 397.03 278.351C397.03 274.845 399.883 271.992 403.389 271.992H486.057C489.563 271.992 492.416 274.845 492.416 278.351C492.416 281.857 489.563 284.71 486.057 284.71Z" fill="#E6E6E6"/>
<path d="M437.118 111.717H356.761C354.735 111.717 353.087 110.069 353.087 108.043C353.087 106.017 354.735 104.37 356.761 104.37H437.118C439.144 104.37 440.792 106.017 440.792 108.043C440.792 110.069 439.144 111.717 437.118 111.717V111.717Z" fill="#3F3D56"/>
<path d="M480.239 150.915H313.641C311.615 150.915 309.966 149.267 309.966 147.241C309.966 145.215 311.615 143.568 313.641 143.568H480.239C482.264 143.568 483.912 145.215 483.912 147.241C483.912 149.267 482.264 150.915 480.239 150.915Z" fill="#3F3D56"/>
<path d="M36.1211 504.385C36.1211 505.045 36.6511 505.575 37.3112 505.575H559.601C560.261 505.575 560.791 505.045 560.791 504.385C560.791 503.725 560.261 503.195 559.601 503.195H37.3112C36.6511 503.195 36.1211 503.725 36.1211 504.385Z" fill="#3F3D56"/>
<path d="M164.369 222.297C164.227 222.297 164.086 222.291 163.944 222.282C155.575 221.745 126.939 217.693 109.844 188.135C108.435 185.701 108.712 182.607 110.534 180.436L142.194 142.714C143.489 141.172 145.489 140.283 147.514 140.307C148.914 140.341 152.229 140.694 152.873 143.25C156.676 158.346 172.736 176.097 192.05 178.449C194.008 178.687 195.579 180.434 196.254 183.121C196.78 185.213 196.294 187.369 194.919 189.037L169.557 219.835C168.268 221.4 166.378 222.296 164.369 222.296V222.297ZM147.393 141.825C145.845 141.825 144.341 142.518 143.357 143.69L111.697 181.412C110.284 183.095 110.068 185.491 111.158 187.374C127.876 216.281 155.863 220.242 164.042 220.767C165.712 220.879 167.316 220.167 168.385 218.87L193.747 188.072C194.812 186.78 195.189 185.111 194.782 183.491C194.383 181.905 193.408 180.144 191.866 179.956C171.914 177.526 155.326 159.203 151.4 143.62C151.082 142.359 149.168 141.866 147.483 141.826C147.453 141.825 147.423 141.825 147.393 141.825H147.393Z" fill="#3F3D56"/>
<path d="M129.03 189.376L151.855 166.103C153.415 164.512 150.971 162.063 149.409 163.656L126.583 186.93C125.023 188.52 127.467 190.969 129.03 189.376Z" fill="#E6E6E6"/>
<path d="M142.806 195.933C149.106 190.286 154.58 183.749 159.063 176.575C160.246 174.682 157.254 172.943 156.075 174.829C151.742 181.764 146.449 188.028 140.36 193.486C138.698 194.976 141.152 197.416 142.806 195.933H142.806V195.933Z" fill="#E6E6E6"/>
<path d="M155.223 203.784C160.958 197.431 165.84 190.34 169.684 182.691C170.681 180.707 167.698 178.953 166.697 180.945C162.983 188.335 158.319 195.198 152.776 201.338C151.288 202.987 153.727 205.441 155.223 203.784H155.223Z" fill="#E6E6E6"/>
</g>
<defs>
<clipPath id="clip0_209_23">
<rect width="596.912" height="505.575" fill="white"/>
</clipPath>
</defs>
</svg>
